# xmcd
#
# Track frame offsets:
#	150
#	16647
#	34090
#	57300
#	71232
#	89172
#	100192
#	118997
#	131945
#	150825
#
# Disc length: 2217 seconds
#
# Revision: 1
# Processed by: cddbd v1.5.2PL0 Copyright (c) Steve Scherf et al.
# Submitted via: EZCDAudioConverter 6.0.8.1
#
DISCID=8708a70a
DTITLE=Dan Seals and Michael Martin Murphey - Back 2 Back Hits
DYEAR=2001
DGENRE=Country
TTITLE0=Bop (Dan Seals)
TTITLE1=Big Wheels In The Moonlight (Dan Seals)
TTITLE2=You Still Move Me (Dan Seals)
TTITLE3=God Must Be A Cowboy (Dan Seals)
TTITLE4=Bordertown (Dan Seals)
TTITLE5=Will It Be Love By Morning (Michael Martin Murphey)
TTITLE6=Caroolina In The Pines (Michael Martin Murphey)
TTITLE7=What's Forever For (Michael Martin Murphey)
TTITLE8=Still Taking Chances (Michael Martin Murphey)
TTITLE9=Don't Count The Rainy Days (Michael Martin Murphey)
EXTD=
EXTT0=
EXTT1=
EXTT2=
EXTT3=
EXTT4=
EXTT5=
EXTT6=
EXTT7=
EXTT8=
EXTT9=
PLAYORDER=
